PathFileType	4	(X/Y/Z)	OpenSim_Sub07_CSBaseline_Gyro.trc
DataRate	CameraRate	NumFrames	NumMarkers	Units	OrigDataRate	OrigDataStartFrame	OrigNumFrames
100	100	40	8	m	100	3895	7788
Frame#	Time	torso_imu_offset_imu	pelvis_imu_offset_imu	tibia_r_imu_offset_imu	femur_r_imu_offset_imu	tibia_l_imu_offset_imu	femur_l_imu_offset_imu	toes_r_imu_offset_imu	toes_l_imu_offset_imu
				X1	Y1	Z1	X2	Y2	Z2	X3	Y3	Z3	X4	Y4	Z4	X5	Y5	Z5	X6	Y6	Z6	X7	Y7	Z7	X8		Y8	Z8	

3895	38.94000000	-0.44859962	0.08109585	0.09068297	0.01058493	0.17613176	-0.46964112	-0.81116407	-0.32374589	-0.22036755	-0.20734881	0.23544729	-1.05529062	1.44409154	-1.32836813	-1.01755204	-0.53646678	0.36692002	-1.26893741	0.02533678	-0.05310319	-0.08953747	-0.09759513	3.25274081	1.25858651
3896	38.95000000	-0.42345853	0.08561580	0.07570905	0.00742108	0.15353513	-0.44439504	-1.12413956	-0.38603943	-0.20469119	-0.26355537	0.25011598	-1.01258644	1.16000238	-1.22754713	-1.47538947	-0.68618888	0.29094600	-1.18623190	0.02314452	-0.06413677	-0.09901615	-0.18493360	3.39792651	0.70083635
3897	38.96000000	-0.39083718	0.09500562	0.07234163	0.00228028	0.13554569	-0.40478391	-1.10701826	-0.37505308	-0.15502373	-0.33666456	0.26391280	-0.96454679	0.65320845	-1.04460700	-1.90520811	-0.88086251	0.25937304	-1.07771822	0.02151951	-0.05123026	-0.10297337	-0.18073952	3.59503114	0.11260369
3898	38.97000000	-0.35087770	0.11458990	0.06614078	0.00000750	0.13155788	-0.36820736	-0.92877632	-0.33804064	-0.14697721	-0.41888182	0.25294834	-0.91753786	0.05762226	-0.94074067	-2.26716191	-0.99540246	0.19450887	-0.93189427	0.01601110	-0.04944932	-0.09973851	-0.15750963	3.71402439	-0.44864567
3899	38.98000000	-0.32070075	0.13810076	0.06291172	0.00334444	0.13725847	-0.32776561	-0.73963110	-0.31891217	-0.16349470	-0.48954791	0.25132986	-0.87145248	-0.80220505	-0.99341675	-2.50505292	-1.14128233	0.15310330	-0.78873103	0.01173064	-0.05255195	-0.09169548	-0.05233027	3.74473652	-0.93041098
3900	38.99000000	-0.28541057	0.16100435	0.05055967	0.01599905	0.13837482	-0.27952706	-0.55897862	-0.32249059	-0.16466689	-0.55261030	0.26532527	-0.84536318	-2.02438717	-1.20211137	-2.69649282	-1.25343276	0.13483242	-0.69279093	0.01101541	-0.06315973	-0.07715947	0.05976543	3.63458185	-1.32535208
3901	39	-0.25454522	0.17670310	0.04305003	0.02979396	0.14480927	-0.24076818	-0.34849111	-0.27530141	-0.21347104	-0.60349765	0.30146018	-0.84079030	-3.33031928	-1.46888309	-2.88051913	-1.25206049	0.09934018	-0.58675467	-0.00435958	-0.06026894	-0.06707195	0.21025961	3.46106653	-1.67013105
3902	39.01000000	-0.21537511	0.19098976	0.04015204	0.03823885	0.16273121	-0.22074221	-0.10606177	-0.22857396	-0.25517501	-0.62612004	0.34965692	-0.83934543	-3.96544679	-1.56142394	-3.00613546	-1.23735470	0.04693107	-0.51122808	-0.00979587	-0.07528238	-0.06667295	0.33592641	3.37166760	-2.01332086
3903	39.02000000	-0.18750443	0.19881116	0.04927701	0.05864363	0.18833003	-0.18371633	0.09519661	-0.21115890	-0.25080669	-0.63620964	0.38364416	-0.84333433	-3.72981560	-1.38693631	-3.21121212	-1.14944710	0.02156623	-0.43173186	-0.01446998	-0.08597719	-0.05496543	0.32463620	3.33967391	-2.37044661
3904	39.03000000	-0.15553916	0.20435517	0.05510874	0.09830262	0.20700281	-0.16085982	0.08702612	-0.19185957	-0.31177591	-0.57919379	0.40831632	-0.87605029	-3.15620858	-1.10766836	-3.52812663	-1.01402053	-0.00011824	-0.34115290	-0.01767733	-0.08195513	-0.05075404	0.24269918	3.33011149	-2.68420342
3905	39.04000000	-0.14138993	0.20238403	0.06021910	0.12619485	0.22167329	-0.15281679	-0.02616945	-0.20445964	-0.31713374	-0.48355272	0.43185148	-0.92309717	-2.34795048	-0.96997828	-3.84812653	-0.88284075	0.01769856	-0.27380589	-0.01967175	-0.07732388	-0.03833609	0.09833133	3.31478844	-2.85873960
3906	39.05000000	-0.13017047	0.20074580	0.06348381	0.14353451	0.23478236	-0.13346763	-0.08911085	-0.24557901	-0.25863985	-0.35365731	0.46459940	-0.97352710	-1.50133884	-1.05844917	-4.08990380	-0.70919369	0.02099419	-0.23411303	-0.03480681	-0.07552961	-0.00205439	0.07207345	3.28696369	-2.88108955
3907	39.06000000	-0.11143857	0.19873105	0.06080537	0.15610022	0.23530484	-0.11972031	-0.16934367	-0.24770383	-0.29541108	-0.19764309	0.48831217	-1.02339346	-0.96746371	-1.21470826	-4.20603336	-0.50515321	-0.02368318	-0.19051153	-0.04191834	-0.07649732	0.02193838	0.11294564	3.36363051	-2.82441586
3908	39.07000000	-0.08729443	0.19408136	0.05692341	0.14911810	0.22994961	-0.12467080	-0.22536468	-0.23800610	-0.31619021	-0.03498245	0.49161002	-1.06040735	-0.75052806	-1.19263163	-4.24337126	-0.33050554	-0.09323551	-0.13662254	-0.04726596	-0.07855716	0.02974865	0.18312107	3.51275435	-2.69502449
3909	39.08000000	-0.06402608	0.18866233	0.06468799	0.13439602	0.21774105	-0.11665963	-0.22703876	-0.21179503	-0.35196829	0.10756078	0.49284178	-1.09641722	-0.56234455	-0.99221066	-4.23704029	-0.19869668	-0.11673075	-0.09442047	-0.06030689	-0.09141035	0.03867865	0.33001285	3.62025820	-2.45774157
3910	39.09000000	-0.03786735	0.17865016	0.06741501	0.11899297	0.21910753	-0.11787643	-0.12980439	-0.20512053	-0.38946629	0.23461825	0.49957967	-1.13134847	-0.38899032	-0.78221868	-4.24970625	0.02000767	-0.15445882	-0.00147904	-0.05252243	-0.08579871	0.04138771	0.41828888	3.58806933	-2.13957487
3911	39.10000000	-0.02079300	0.15606238	0.06864185	0.11066559	0.21193675	-0.11243229	0.01343764	-0.21681507	-0.41830497	0.32585853	0.48015813	-1.14504230	-0.18264347	-0.71258655	-4.41874130	0.27832612	-0.23613548	0.05924165	-0.04968293	-0.08460898	0.03204659	0.56146000	3.55110293	-1.79915615
3912	39.11000000	-0.00355562	0.14344346	0.05992728	0.09053267	0.19369574	-0.10873388	0.10328727	-0.21570590	-0.46545361	0.37521683	0.44040123	-1.13612412	0.15781178	-0.81787348	-4.50656630	0.42662961	-0.25794038	0.12840852	-0.04013259	-0.08517988	0.01564268	0.60616274	3.64235379	-1.52945225
3913	39.12000000	0.00580932	0.12989812	0.05534889	0.06626581	0.17195086	-0.10478674	0.12260668	-0.23341134	-0.51432660	0.37215653	0.39429029	-1.10657960	0.46592378	-0.96382681	-4.52189701	0.58678956	-0.28816468	0.28710528	-0.02349549	-0.08541444	-0.00600763	0.61088123	3.82090937	-1.40588227
3914	39.13000000	0.01171643	0.12007286	0.05122021	0.03756936	0.15343979	-0.09953728	0.14489304	-0.27381449	-0.54829910	0.32192288	0.33178956	-1.07256960	0.40289445	-1.03346623	-4.48897899	0.68232229	-0.28844525	0.26934904	-0.01589012	-0.06123683	-0.02559245	0.64364473	3.89055711	-1.39738175
3915	39.14000000	0.02344576	0.11230660	0.04537038	0.01550062	0.13380957	-0.09407161	0.13540078	-0.30299486	-0.59746316	0.23991943	0.24479878	-1.03148000	0.00344209	-0.98129803	-4.39728640	0.85434778	-0.28759280	0.37118634	-0.00826100	-0.06072771	-0.05674817	0.62683184	3.84065216	-1.46800079
3916	39.15000000	0.03213832	0.11167103	0.04239305	-0.00026323	0.10791286	-0.09012885	0.10096551	-0.32090756	-0.66212156	0.14441032	0.11030264	-0.97219637	-0.37040882	-0.80389704	-4.18469420	1.20430542	-0.31536972	0.48700370	-0.00533625	-0.06474884	-0.08689338	0.43148219	3.70685214	-1.58572039
3917	39.16000000	0.03429616	0.11933416	0.03803267	-0.00893081	0.07080095	-0.09506244	0.06240054	-0.33994938	-0.70078229	0.08426299	-0.02848257	-0.90268424	-0.67615497	-0.58620015	-3.92011813	1.46471044	-0.31272277	0.42649381	-0.00064366	-0.06752758	-0.10663639	0.20580257	3.52414559	-1.73790770
3918	39.17000000	0.04423881	0.13063209	0.02626296	-0.00227226	0.01687173	-0.10425794	0.01673097	-0.35228851	-0.73743181	0.04874127	-0.08671431	-0.83025942	-0.83694500	-0.42944741	-3.59678509	1.55468379	-0.24466257	0.40688080	-0.00225440	-0.06272505	-0.10893968	0.02392377	3.32225372	-1.89179225
3919	39.18000000	0.04996572	0.14152974	0.01303370	-0.00547072	-0.03498841	-0.11747164	0.00044709	-0.36291017	-0.78845894	-0.00101483	-0.05185069	-0.76925369	-0.85650039	-0.42444127	-3.31093805	1.36695838	-0.18909000	0.37256469	-0.01096769	-0.08276739	-0.09853774	-0.16406212	3.04531016	-2.03474762
3920	39.19000000	0.05754500	0.14958138	0.00018100	-0.02399638	-0.06680633	-0.12924254	-0.01925061	-0.37590724	-0.85744753	-0.08419784	0.02928588	-0.72907712	-0.92632366	-0.60739230	-3.08546559	0.90229006	-0.19238558	0.27042706	-0.01098746	-0.09287866	-0.08880920	-0.28070100	2.73871448	-2.13324265
3921	39.20000000	0.06018104	0.15503849	-0.01217606	-0.04773720	-0.05928336	-0.14372805	-0.07595844	-0.39624577	-0.93298300	-0.14816456	0.12387503	-0.68993267	-0.79054956	-0.78365348	-2.78976018	0.29090176	-0.23696997	0.13071075	-0.01547664	-0.09967213	-0.06845038	-0.67243779	2.44695196	-2.20249771
3922	39.21000000	0.05879499	0.15363916	-0.02660741	-0.07393401	-0.04902160	-0.14290204	-0.09478941	-0.41907262	-1.00088330	-0.15851988	0.20216025	-0.64920752	-0.86816951	-0.81079889	-2.42574150	-0.37599303	-0.34167625	-0.03124602	-0.03027389	-0.11484772	-0.05378079	-0.59952734	2.13316968	-2.23036428
3923	39.22000000	0.05620244	0.14730099	-0.04253843	-0.12784950	-0.05877539	-0.12502291	-0.09055347	-0.46022552	-1.04941607	-0.16464462	0.23119364	-0.58972785	-1.11022091	-0.61857769	-2.03346214	-0.88924901	-0.42295746	-0.13535335	-0.02810861	-0.12565380	-0.03429663	0.39527453	1.90268312	-2.05144371
3924	39.23000000	0.05498835	0.13853484	-0.05160789	-0.20189741	-0.09698352	-0.10746189	-0.08203001	-0.49393995	-1.10398094	-0.18440567	0.20820445	-0.51785515	-0.97909613	-0.40145860	-1.66102335	-1.04725349	-0.37255799	-0.15908239	-0.04468427	-0.12640171	-0.01687227	0.14689094	1.66013949	-1.66476774
3925	39.24000000	0.05930358	0.11974058	-0.05613975	-0.28793382	-0.12338118	-0.07969104	-0.09199280	-0.52382277	-1.14444930	-0.18758538	0.16244935	-0.44244264	-0.47496390	-0.26306091	-1.26194904	-0.99781954	-0.26422829	-0.20737772	-0.10908617	-0.18037581	0.02162858	-0.00786817	1.47503525	-1.23112026
3926	39.25000000	0.06661970	0.08698299	-0.05617874	-0.38639893	-0.14640454	-0.04696039	-0.13528787	-0.54232859	-1.18466867	-0.21764506	0.10969472	-0.36195295	-0.11680204	-0.24352204	-0.86523587	-0.80906775	-0.24739207	-0.24828982	-0.16478259	-0.28581635	0.03194800	-0.10073929	1.24371235	-0.83657221
3927	39.26000000	0.08199537	0.04013394	-0.05247533	-0.47997455	-0.18735089	-0.03669642	-0.18688684	-0.56073578	-1.29515533	-0.30177912	0.05186428	-0.28740229	0.18253772	-0.44009360	-0.49709414	-0.38673985	-0.41183884	-0.18722965	-0.17255403	-0.34742189	0.04059773	-0.02695002	0.94263920	-0.52017420
3928	39.27000000	0.10013471	-0.01869857	-0.05285425	-0.52913136	-0.22767438	-0.04348291	-0.22670018	-0.56103545	-1.34747968	-0.40637055	0.01725936	-0.24667479	0.52875948	-0.54155027	-0.14566121	-0.00275898	-0.59238626	-0.11785995	-0.20749725	-0.43431474	0.08448522	0.01345102	0.64011266	-0.27114123
3929	39.28000000	0.12909100	-0.07990254	-0.05111967	-0.52689499	-0.24114487	-0.05429828	-0.20070715	-0.56208106	-1.42202054	-0.49296125	0.00360132	-0.21967245	0.66775604	-0.39434377	0.14531835	0.34480643	-0.66382875	0.10471527	-0.26493287	-0.51602749	0.14306380	-0.07613300	0.40966610	-0.10971100
3930	39.29000000	0.17408912	-0.14519563	-0.05713154	-0.51730325	-0.20425484	-0.08564174	-0.23965866	-0.57991930	-1.49137434	-0.54582593	0.00722130	-0.19360227	0.50534764	-0.23017615	0.39253430	0.59364803	-0.69213671	0.19332929	-0.30696090	-0.62839728	0.19681861	0.42549137	0.10588035	-0.00465157
3931	39.30000000	0.23320060	-0.20402322	-0.05444434	-0.45883419	-0.14482096	-0.08984760	-0.32502497	-0.59738274	-1.55716159	-0.56771923	0.04487244	-0.14981251	0.16133207	-0.14962340	0.62546251	0.80543265	-0.64230352	0.28152281	-0.36570236	-0.71177338	0.25849931	0.06732534	-1.00705476	0.32476024
3932	39.31000000	0.30241154	-0.26260893	-0.04935116	-0.39091168	-0.11828666	-0.12013695	-0.33842796	-0.62799536	-1.60161532	-0.58793205	0.09297242	-0.10080668	-0.30528546	-0.10807561	0.81685350	0.88023376	-0.62066843	0.33422660	-0.44514386	-0.85345897	0.34874818	-3.32818422	-2.32211505	0.84336225
3933	39.32000000	0.35615168	-0.30965890	-0.04345281	-0.33128175	-0.14530509	-0.12285006	-0.39838056	-0.64803548	-1.65517519	-0.61519876	0.12181476	-0.05951751	-0.78286116	-0.02834767	1.06952857	0.67329955	-0.72490953	0.35815945	-0.51256458	-1.00411928	0.42475778	-2.37370516	-2.58864300	0.70542019
3934	39.33000000	0.39289796	-0.33600487	-0.04104002	-0.31535023	-0.17187912	-0.11965852	-0.51649892	-0.67518156	-1.69054079	-0.63398645	0.12023309	-0.04077119	-0.81745170	-0.08412153	1.31279430	0.33902622	-0.98509219	0.44713670	-0.56020461	-1.16459276	0.46516742	0.00233073	-2.36436307	0.17775171
